PathFileType	4	(x/y/z)	S01_P20_T22
DataRate	CameraRate	NumFrames	NumMarkers	Units	OrigDataRate	OrigDataStartFrame	OrigNumFrames
240	240	10	51	mm	240	354	404
Frame#	Time	Sternum			R.Acromium			L.Acromium			Top.Head			R.ASIS			L.ASIS			R.PSIS			L.PSIS			R.Great.Tro			L.Great.Tro			R.Iliac.Crest			L.Iliac.Crest			V.Sacral			R.Thigh.Upper.Post			R.Thigh.Lower.Ant			R.Thigh.Lower.Post			R.Thigh.Upper.Ant			R.Knee.Lat			R.Knee.Med			R.Shank.Upper.Post			R.Shank.Lower.Ant			R.Shank.Lower.Post			R.Shank.Upper.Ant			R.Ankle.Lat			R.Ankle.Med			R.Heel.Upper			R.Heel.Med			R.Heel.Lat			R.Toe.Lat			R.Toe.Med			R.Toe.Tip			L.Thigh.Upper.Post			L.Thigh.Lower.Ant			L.Thigh.Lower.Post			L.Thigh.Upper.Ant			L.Knee.Lat			L.Knee.Med			L.Shank.Upper.Post			L.Shank.Lower.Ant			L.Shank.Lower.Post			L.Shank.Upper.Ant			L.Ankle.Lat			L.Ankle.Med			L.Heel.Upper			L.Heel.Med			L.Heel.Lat			L.Toe.Lat			L.Toe.Med			L.Toe.Tip			Cervical.Spine			Back			
		X1	Y1	Z1	X2	Y2	Z2	X3	Y3	Z3	X4	Y4	Z4	X5	Y5	Z5	X6	Y6	Z6	X7	Y7	Z7	X8	Y8	Z8	X9	Y9	Z9	X10	Y10	Z10	X11	Y11	Z11	X12	Y12	Z12	X13	Y13	Z13	X14	Y14	Z14	X15	Y15	Z15	X16	Y16	Z16	X17	Y17	Z17	X18	Y18	Z18	X19	Y19	Z19	X20	Y20	Z20	X21	Y21	Z21	X22	Y22	Z22	X23	Y23	Z23	X24	Y24	Z24	X25	Y25	Z25	X26	Y26	Z26	X27	Y27	Z27	X28	Y28	Z28	X29	Y29	Z29	X30	Y30	Z30	X31	Y31	Z31	X32	Y32	Z32	X33	Y33	Z33	X34	Y34	Z34	X35	Y35	Z35	X36	Y36	Z36	X37	Y37	Z37	X38	Y38	Z38	X39	Y39	Z39	X40	Y40	Z40	X41	Y41	Z41	X42	Y42	Z42	X43	Y43	Z43	X44	Y44	Z44	X45	Y45	Z45	X46	Y46	Z46	X47	Y47	Z47	X48	Y48	Z48	X49	Y49	Z49	X50	Y50	Z50	X51	Y51	Z51	

354	1.4708	615.57	1237.3	272.89	498.6	1489.5	451.93	482.84	1507.8	118.58	520.2	1818	279.22	560.2	994	423.55	570.47	983.68	157.54	326.64	1034	323.2	328.84	1032.5	219.15	487.64	945.19	503.78	466.28	938.21	74.63	470.17	1089.7	487.37	467.39	1069.8	78.891	315.23	996.32	268.66	598.49	657.57	471.6	691.01	621.54	442.26	636.31	579.29	448.8	656.59	702.1	467.9	684.52	532.41	439.61	678.14	538.05	298.12	644.65	369.62	461.31	703.19	289.96	411.86	641.55	299.8	449.42	703.33	361.4	430.76	637.12	102.26	409.77	667.63	107.39	316.18	569.73	69.616	349.07	585.59	40.319	320.95	578.9	39.913	384.67	767.19	39.666	446.42	802.66	46.772	325.37	862.92	69.228	381.84	422.45	657.72	85.131	503.67	585.46	66.286	432.25	567.48	94.984	486.81	679.28	58.589	466.92	483.4	72.308	516.87	470.19	210.64	349.95	404.65	62.666	345.77	295.91	83.679	303.39	342.67	69.537	392.43	356.4	71.584	162.48	177.29	112.68	197.94	180.1	205.93	89.11	189.58	163.38	87.521	166.46	199.21	82.043	160.82	137.17	246.44	47.457	99.445	277.13	53.764	220.71	335.87	40.419	168.26	404.6	1559.2	289.01	312.57	1250.4	298.62
355	1.475	621.08	1237.2	273.63	504.28	1489.2	453.11	488.19	1508	119.8	525.68	1817.8	280.74	566.02	993.93	424.08	576.02	983.55	158.07	332.36	1033.8	323.72	334.37	1032.1	219.65	493.49	945.06	504.23	472.02	937.88	75.003	475.85	1089.5	487.99	472.98	1069.8	79.605	320.9	995.98	269.27	604.1	657.2	471.69	696.56	621	442.3	641.75	578.86	448.79	662.32	701.6	468.1	689.87	531.83	439.49	683.4	537.66	298.07	648.64	369.43	461.27	706.21	289.19	411.54	644.81	299.64	449.4	707.15	360.63	430.51	637.76	102.23	409.58	668.2	107.01	315.91	570.01	69.934	349.04	585.64	40.513	320.93	578.99	40.186	384.63	767.46	39.068	446.35	802.9	45.439	325.11	863.41	67.476	381.52	430.89	656.99	84.674	512.62	585.54	65.001	441.57	566.81	94.213	494.78	679.18	57.823	477.09	483.56	70.906	528.3	469.95	209.14	359.61	406.82	61.544	353.68	298.1	82.446	312.03	345.63	68.519	401.27	357.83	70.33	168.76	182.39	111.67	204.49	184.68	204.87	96.006	197.49	162.55	93.679	174.7	198.55	87.871	168.77	136.54	248.04	49.449	99.219	279.31	55.456	220.29	337.19	39.785	167.7	410.09	1559.1	290.39	318.2	1250.2	299.56
356	1.4792	626.56	1237.2	274.34	509.96	1488.9	454.26	493.52	1508.3	121.01	531.15	1817.8	282.24	571.81	993.91	424.58	581.52	983.49	158.57	338.04	1033.7	324.24	339.85	1031.8	220.14	499.3	944.98	504.67	477.68	937.63	75.354	481.5	1089.3	488.6	478.48	1070	80.303	326.53	995.73	269.88	609.55	656.86	471.79	701.94	620.44	442.36	647	578.44	448.8	667.9	701.1	468.3	694.98	531.23	439.39	688.45	537.24	298.02	652.39	369.25	461.22	709.05	288.44	411.27	647.86	299.48	449.37	710.76	359.88	430.3	638.34	102.22	409.4	668.7	106.68	315.67	570.26	70.207	349.01	585.68	40.679	320.92	579.08	40.429	384.6	767.7	38.583	446.31	803.1	44.286	324.88	863.83	65.95	381.23	439.36	656.34	84.236	521.62	585.73	63.741	450.95	566.22	93.474	502.77	679.17	57.073	487.39	483.84	69.538	539.86	469.89	207.68	369.48	409.05	60.439	361.83	300.38	81.283	320.92	348.66	67.515	410.33	359.34	69.144	175.34	187.61	110.71	211.31	189.33	203.86	103.25	205.45	161.76	100.2	182.97	197.91	94.065	176.82	135.92	249.95	51.687	98.945	281.85	57.318	219.79	338.78	39.23	167.05	415.56	1559	291.76	323.81	1250.1	300.5
357	1.4833	632.02	1237.2	275.01	515.63	1488.7	455.39	498.82	1508.6	122.19	536.61	1817.8	283.73	577.57	993.94	425.04	586.97	983.51	159.02	343.7	1033.6	324.76	345.28	1031.5	220.64	505.08	944.97	505.08	483.28	937.46	75.681	487.14	1089.1	489.2	483.9	1070.2	80.979	332.12	995.58	270.5	614.84	656.54	471.9	707.13	619.86	442.41	652.05	578.03	448.82	673.34	700.59	468.49	699.85	530.61	439.32	693.27	536.78	297.99	655.91	369.07	461.16	711.7	287.72	411.04	650.7	299.33	449.34	714.14	359.14	430.13	638.84	102.22	409.22	669.13	106.38	315.43	570.48	70.436	348.98	585.72	40.821	320.9	579.16	40.644	384.57	767.91	38.198	446.29	803.27	43.3	324.68	864.17	64.635	380.99	447.86	655.78	83.831	530.64	586.03	62.518	460.37	565.74	92.778	510.76	679.26	56.348	497.78	484.25	68.214	551.49	470.02	206.28	379.55	411.33	59.363	370.21	302.75	80.206	330.04	351.73	66.536	419.59	360.94	68.041	182.21	192.93	109.8	218.41	194.03	202.91	110.83	213.4	161.02	107.07	191.21	197.31	100.61	184.9	135.35	252.19	54.17	98.619	284.79	59.345	219.22	340.68	38.779	166.31	421.03	1558.9	293.11	329.41	1250	301.43
358	1.4875	637.44	1237.3	275.65	521.31	1488.6	456.48	504.1	1509	123.36	542.05	1817.9	285.21	583.31	994.02	425.47	592.38	983.59	159.42	349.33	1033.7	325.29	350.68	1031.4	221.13	510.83	945.01	505.48	488.82	937.36	75.981	492.75	1089	489.77	489.23	1070.4	81.627	337.67	995.52	271.11	619.96	656.25	472.01	712.16	619.26	442.47	656.9	577.63	448.84	678.64	700.1	468.66	704.5	529.98	439.28	697.88	536.3	297.97	659.19	368.89	461.11	714.17	287.03	410.86	653.33	299.19	449.3	717.32	358.42	430.01	639.28	102.22	409.06	669.5	106.13	315.22	570.67	70.627	348.95	585.76	40.939	320.89	579.23	40.834	384.55	768.09	37.901	446.28	803.41	42.469	324.51	864.46	63.517	380.78	456.37	655.32	83.468	539.67	586.45	61.344	469.83	565.38	92.141	518.74	679.46	55.657	508.25	484.79	66.943	563.16	470.34	204.96	389.78	413.65	58.325	378.8	305.18	79.226	339.36	354.84	65.596	429.03	362.62	67.029	189.36	198.33	108.99	225.76	198.74	202.05	118.72	221.29	160.38	114.28	199.35	196.77	107.5	192.96	134.84	254.79	56.895	98.238	288.15	61.524	218.57	342.93	38.462	165.47	426.48	1559	294.44	334.99	1250	302.35
359	1.4917	642.83	1237.5	276.24	526.98	1488.5	457.55	509.35	1509.5	124.5	547.49	1818	286.67	589.02	994.14	425.85	597.74	983.75	159.77	354.94	1033.9	325.8	356.05	1031.3	221.62	516.57	945.13	505.85	494.28	937.35	76.253	498.37	1088.9	490.34	494.48	1070.7	82.243	343.18	995.55	271.73	624.94	655.99	472.12	717.01	618.67	442.53	661.56	577.24	448.88	683.8	699.61	468.82	708.91	529.35	439.26	702.26	535.79	297.96	662.26	368.72	461.05	716.48	286.36	410.73	655.78	299.05	449.27	720.3	357.73	429.93	639.66	102.23	408.9	669.81	105.91	315.02	570.83	70.782	348.92	585.79	41.037	320.87	579.3	41.001	384.54	768.24	37.678	446.29	803.52	41.781	324.37	864.69	62.579	380.61	464.87	654.96	83.157	548.7	586.98	60.228	479.3	565.13	91.573	526.72	679.77	55.005	518.77	485.47	65.735	574.81	470.87	203.72	400.14	416.01	57.336	387.58	307.68	78.355	348.85	357.97	64.707	438.62	364.38	66.117	196.77	203.78	108.27	233.37	203.44	201.29	126.89	229.06	159.85	121.81	207.34	196.32	114.71	200.95	134.41	257.8	59.851	97.801	291.97	63.839	217.83	345.56	38.304	164.53	431.92	1559.2	295.74	340.55	1250.1	303.26
360	1.4958	648.2	1237.8	276.78	532.64	1488.6	458.58	514.58	1510.1	125.6	552.93	1818.3	288.12	594.72	994.32	426.18	603.05	983.99	160.06	360.51	1034.1	326.32	361.38	1031.4	222.12	522.29	945.32	506.2	499.68	937.43	76.495	503.98	1088.9	490.89	499.65	1071.1	82.821	348.66	995.68	272.34	629.75	655.78	472.24	721.69	618.07	442.58	666.04	576.88	448.93	688.81	699.14	468.97	713.11	528.71	439.25	706.42	535.26	297.97	665.11	368.55	461	718.62	285.72	410.64	658.04	298.92	449.23	723.08	357.06	429.9	639.99	102.24	408.76	670.08	105.72	314.85	570.97	70.906	348.9	585.82	41.118	320.86	579.36	41.149	384.54	768.37	37.519	446.31	803.62	41.22	324.25	864.87	61.803	380.48	473.38	654.71	82.905	557.71	587.64	59.177	488.78	565.01	91.083	534.67	680.19	54.398	529.32	486.29	64.598	586.42	471.61	202.59	410.61	418.4	56.406	396.54	310.22	77.599	358.51	361.11	63.883	448.35	366.2	65.31	204.44	209.24	107.67	241.23	208.1	200.64	135.33	236.65	159.45	129.66	215.12	195.99	122.24	208.79	134.1	261.24	63.019	97.307	296.28	66.27	217.01	348.61	38.331	163.47	437.36	1559.4	297.02	346.08	1250.3	304.15
361	1.5	653.55	1238.1	277.28	538.31	1488.7	459.57	519.78	1510.7	126.67	558.36	1818.6	289.54	600.39	994.55	426.46	608.32	984.31	160.29	366.06	1034.5	326.83	366.69	1031.5	222.61	528	945.58	506.51	505.01	937.6	76.708	509.59	1088.9	491.43	504.74	1071.5	83.357	354.1	995.89	272.96	634.42	655.6	472.36	726.2	617.49	442.63	670.34	576.54	448.99	693.7	698.69	469.1	717.1	528.09	439.27	710.38	534.74	297.98	667.77	368.39	460.96	720.6	285.1	410.58	660.13	298.81	449.2	725.68	356.41	429.89	640.28	102.26	408.63	670.3	105.57	314.69	571.08	71.003	348.87	585.85	41.183	320.85	579.41	41.28	384.55	768.47	37.411	446.34	803.69	40.773	324.15	865.01	61.172	380.37	481.86	654.59	82.717	566.7	588.44	58.199	498.26	565.03	90.679	542.59	680.73	53.84	539.87	487.26	63.539	597.95	472.55	201.56	421.14	420.82	55.547	405.65	312.81	76.963	368.29	364.24	63.136	458.19	368.1	64.611	212.35	214.68	107.2	249.33	212.68	200.11	144.01	244	159.22	137.8	222.61	195.79	130.05	216.42	133.92	265.14	66.377	96.754	301.1	68.793	216.11	352.14	38.563	162.3	442.79	1559.7	298.27	351.59	1250.6	305.03
362	1.5042	658.88	1238.5	277.72	543.97	1488.9	460.53	524.95	1511.4	127.71	563.79	1819	290.95	606.04	994.83	426.68	613.54	984.72	160.46	371.58	1034.9	327.34	371.97	1031.7	223.1	533.7	945.91	506.79	510.27	937.86	76.891	515.22	1089	491.95	509.76	1072	83.848	359.51	996.21	273.56	638.94	655.47	472.48	730.56	616.91	442.68	674.47	576.22	449.06	698.44	698.27	469.22	720.89	527.47	439.3	714.14	534.22	298.01	670.25	368.24	460.94	722.44	284.52	410.56	662.06	298.7	449.18	728.1	355.78	429.92	640.52	102.29	408.52	670.48	105.45	314.56	571.17	71.079	348.86	585.87	41.238	320.85	579.46	41.397	384.57	768.56	37.345	446.38	803.75	40.425	324.08	865.11	60.669	380.3	490.32	654.59	82.595	575.65	589.36	57.297	507.73	565.19	90.365	550.49	681.4	53.331	550.4	488.38	62.564	609.37	473.71	200.64	431.73	423.26	54.768	414.91	315.44	76.447	378.17	367.36	62.478	468.11	370.07	64.019	220.48	220.05	106.86	257.67	217.17	199.7	152.91	251.06	159.16	146.22	229.77	195.74	138.15	223.79	133.89	269.54	69.895	96.142	306.46	71.381	215.14	356.19	39.018	161.01	448.21	1560.1	299.49	357.08	1251	305.9
363	1.5083	664.2	1239	278.11	549.63	1489.1	461.45	530.1	1512.1	128.7	569.23	1819.5	292.33	611.67	995.17	426.86	618.72	985.21	160.58	377.07	1035.5	327.83	377.23	1032.1	223.58	539.38	946.32	507.03	515.48	938.23	77.044	520.86	1089.2	492.44	514.7	1072.6	84.292	364.89	996.62	274.15	643.32	655.37	472.61	734.75	616.34	442.72	678.42	575.94	449.14	703.06	697.86	469.32	724.48	526.87	439.35	717.72	533.7	298.04	672.56	368.09	460.92	724.14	283.96	410.57	663.85	298.6	449.16	730.36	355.18	429.97	640.73	102.31	408.42	670.63	105.35	314.44	571.24	71.137	348.84	585.89	41.283	320.84	579.5	41.5	384.61	768.63	37.311	446.42	803.79	40.163	324.02	865.19	60.276	380.25	498.76	654.72	82.537	584.57	590.42	56.474	517.19	565.5	90.142	558.36	682.19	52.871	560.9	489.64	61.678	620.65	475.07	199.84	442.32	425.73	54.08	424.29	318.09	76.05	388.13	370.44	61.918	478.1	372.11	63.532	228.84	225.32	106.67	266.26	221.51	199.42	162.01	257.79	159.29	154.92	236.53	195.86	146.5	230.84	134.03	274.47	73.539	95.474	312.37	74.007	214.09	360.79	39.706	159.6	453.63	1560.6	300.67	362.53	1251.5	306.74
